# xmcd
#
# Track frame offsets: 
#        150
#        18749
#        35968
#        53118
#        67859
#
# Disc length: 1069 seconds
#
# Revision: 0
# Processed by: cddbd v1.5.2PL0 Copyright (c) Steve Scherf et al.
# Submitted via: ExactAudioCopyFreeDBPlugin 1.0
#
DISCID=41042b05
DTITLE=East Blues Experience - Der Tag
DYEAR=2014
DGENRE=Blues
TTITLE0=Der Tag
TTITLE1=Red Balloon
TTITLE2=Roter Mond
TTITLE3=Soul Full of Blues
TTITLE4=Wie lang soll ich warten
EXTD=
EXTT0=
EXTT1=
EXTT2=
EXTT3=
EXTT4=
PLAYORDER=
